<svg xmlns="http://www.w3.org/2000/svg" viewBox="0 0 74 34" role="img" aria-label="Elisa logo">
  <path d="M25.731,9.725a40.9132,40.9132,0,0,0,.2614,4.2973,13.0346,13.0346,0,0,0,.2608,1.5849c.027.1152.0685.1253.0685.1253.0382-.0022.0528-.0145.11-.0738a6.877,6.877,0,0,0,.7453-1.5607,21.9543,21.9543,0,0,0,1.4336-5.3655c.0353-.2313.3293-2.3148-.2982-3.1741A1.0176,1.0176,0,0,0,27.7,5.0926.93.93,0,0,0,27.53,5.078c-.4825,0-1.6483.3551-1.7386,3.0632C25.7909,8.1412,25.7329,9.4,25.731,9.725ZM14.3519,14.5442a5.7031,5.7031,0,0,0-2.0683.4371A6.591,6.591,0,0,0,8.4827,18.68c-.02.0577-.3059.6923-.12.9266.1347.17.41.1552.7228.1552l.0348,0c3.1844-.07,5.5257-.3908,6.593-1.7337a3.3518,3.3518,0,0,0,.8489-2.0876,1.2885,1.2885,0,0,0-.5514-.93A2.8662,2.8662,0,0,0,14.3519,14.5442Zm48.9127,6.787c-3.5667.0806-5.42.5274-6.391,1.5426a2.9665,2.9665,0,0,0-.7851,1.7458,1.7176,1.7176,0,0,0,.3136,1.1892,1.588,1.588,0,0,0,1.2143.5609c.0025,0,.0543.0029.149.0029.7773,0,4.7287-.1908,6.1727-3.9558.02-.0585.2651-.6007.0512-.9165-.0828-.1218-.3485-.1705-.6673-.1705C63.3034,21.33,63.2838,21.33,63.2646,21.3312Zm-5.33,8.5952a6.236,6.236,0,0,1-3.8372-1.0176c-1.7828-1.5026-1.4154-4.618-1.3988-4.7495a6.5938,6.5938,0,0,1,5.12-5.74,20.1587,20.1587,0,0,1,5.007-.6368h0c.1641,0,.7769-.0158.8578-.2659.08-.2476-.454-.6807-.7963-.91-1.0325-.7019-3.57-1.8917-9.207-1.8917-.021,0-.54-.0031-.7685-.0031-2.3988,0-5.557.42-7.215,1.4135a1.1253,1.1253,0,0,0-.6489.8219,1.39,1.39,0,0,0,.54,1.0635l.0159.0125a9.3,9.3,0,0,0,1.4372.8689l.1528.0739a6.3451,6.3451,0,0,1,3.2882,2.8865,5.7286,5.7286,0,0,1,.5,2.8162c-.5776,5.19-6.49,5.25-6.7418,5.25h-.0194a8.8793,8.8793,0,0,1-5.269-1.7,5.9631,5.9631,0,0,1-2.3072-2.9995c-.0181-.0548-.1326-.41-.1485-.4765-.07-.2954-.2425-.9645-.3967-.9822-.2516-.0287-.6608.8067-.7872,1.0434-.2816.5052-.6232,1.1124-.7435,1.2841-.6434,1.0574-2.3272,3.8285-4.8728,3.8287a4.2316,4.2316,0,0,1-2.0131-.556,5.29,5.29,0,0,1-2.4989-3.3234c-.103-.2915-.188-.6222-.2868-.9217-.4064-1.23-.4963-1.266-1.4325-.426-.8928.8009-1.7575,1.5856-2.5113,2.173a13.9274,13.9274,0,0,1-6.3054,2.91,15.4868,15.4868,0,0,1-1.9545.1466c-2.495,0-4.34-.7126-5.4881-2.0881a11.3258,11.3258,0,0,1-2.0788-3.9258c-.2749-.9-.3555-.7734-1.1167-.9262-.9125-.1832-1.5878-.2824-2.6523-.5234a1.7118,1.7118,0,0,1-1.08-.7664,1.8158,1.8158,0,0,1-.241-1.3338,1.7325,1.7325,0,0,1,1.671-1.4083,1.6578,1.6578,0,0,1,.354.0385c.1726.0377.3291.072.4754.1054.408.0931,1.2019.2514,1.47.2892.0336.0047.1255.0157.1527.017.557.0268.5633-.0271.7445-.6979.02-.0746.0389-.1662.0621-.2567a9.7544,9.7544,0,0,1,6.1914-6.7651,10.0776,10.0776,0,0,1,3.3386-.5272,6.2318,6.2318,0,0,1,3.8247,1.0522,5.2249,5.2249,0,0,1,1.6152,4.7314c-.1584,1.299-.9955,4.46-5.3339,5.7389a19.3475,19.3475,0,0,1-5.0966.6385c-.294.0038-.6161-.0236-.712.1633-.14.2733.1653.6985.1866.732a4.3472,4.3472,0,0,0,3.945,2.1785,7.3547,7.3547,0,0,0,1.3153-.1336,12.6884,12.6884,0,0,0,5.4018-2.6522,29.7094,29.7094,0,0,0,3.1725-2.9617,1.6822,1.6822,0,0,0,.34-.51,1.9616,1.9616,0,0,0,.1452-.556,2.5678,2.5678,0,0,0-.0351-.77c-.0332-.17-.5541-3.434-.5871-3.6938a36.2811,36.2811,0,0,1-.3412-5.4494c.0011-.0656.0515-6.0986,3.7217-7.4747a3.8253,3.8253,0,0,1,1.33-.182,4.3335,4.3335,0,0,1,3.2359,1.3573,7.0105,7.0105,0,0,1,1.37,5.88,24.1628,24.1628,0,0,1-4.33,11.0124,1.3533,1.3533,0,0,0-.2551,1.22c.2732,1.05.6043,2.2694.985,3.3453.0148.046.4293,1.2718,1.3115,1.3043.7458.0275,2.0814-2.0939,2.0814-2.0939.0541-.0922,3.1522-4.6,3.4855-8.9861a10.53,10.53,0,0,0-.0373-1.7946,2.3792,2.3792,0,0,1,.3627-1.62,1.4235,1.4235,0,0,1,1.1541-.46c1.7379,0,1.9195,2.04,1.9262,2.1274.0143.1723.0246.3423.0308.5128.0483.6171.4784,5.9923.7465,8.2051.0044.0428.5336,4.7,4.235,4.7072.0353.0023.1616.01.3478.01,2.203,0,3.5221-.8968,3.534-2.4008.028-.2165.0222-1.1853-1.983-2.2251a15.2514,15.2514,0,0,1-2.5081-1.6062c-.0273-.024-.1121-.095-.1121-.095-2.429-2.0262-1.658-4.2123-1.3641-4.8342.9924-2.0974,3.41-3.4662,7.1876-4.0678a28.4727,28.4727,0,0,1,4.3036-.3284c.2892,0,.4787-.0077.5607-.0051,10.3241.0074,12.6445,3.7176,13.0035,4.4588a10.9932,10.9932,0,0,1,.6544,1.6494c.125.4032.1341.5729.7471.5974.3059.0122.5449.0461.7565.061a11.4936,11.4936,0,0,1,1.8539.2606,1.6226,1.6226,0,0,1,1.0487.7437,1.8627,1.8627,0,0,1,.2374,1.3743A1.7366,1.7366,0,0,1,70.2422,21.68a1.9121,1.9121,0,0,1-.3383-.0306,10.9749,10.9749,0,0,0-1.1671-.1622c-.0864-.0079-.1779-.0162-.2844-.0272-.0431-.0047-.0844-.0068-.1229-.0072-.6119-.0053-.6653.1189-.7437.59a8.8081,8.8081,0,0,1-.4658,1.669,9.8937,9.8937,0,0,1-5.847,5.7438A10.551,10.551,0,0,1,57.9349,29.9264ZM36.4018,4.0671A1.894,1.894,0,0,0,34.5033,5.99a2.416,2.416,0,0,0,2.0855,2.42,2.1047,2.1047,0,0,0,.2261.0125,1.8939,1.8939,0,0,0,1.8984-1.9231,2.4171,2.4171,0,0,0-2.0863-2.42A2.082,2.082,0,0,0,36.4018,4.0671Z" fill="blue"/>
</svg>
